<svg xmlns="http://www.w3.org/2000/svg" viewBox="0 0 240 240"><circle cx="10" cy="10" r="1.76" fill="#0F3F58"/><circle cx="30" cy="10" r="2.16" fill="#0F3F58"/><circle cx="50" cy="10" r="2.50" fill="#0F3F58"/><circle cx="70" cy="10" r="2.77" fill="#0F3F58"/><circle cx="90" cy="10" r="2.94" fill="#0F3F58"/><circle cx="110" cy="10" r="3.00" fill="#0F3F58"/><circle cx="130" cy="10" r="2.94" fill="#0F3F58"/><circle cx="150" cy="10" r="2.77" fill="#0F3F58"/><circle cx="170" cy="10" r="2.50" fill="#0F3F58"/><circle cx="190" cy="10" r="2.16" fill="#0F3F58"/><circle cx="210" cy="10" r="1.76" fill="#0F3F58"/><circle cx="230" cy="10" r="1.31" fill="#0F3F58"/><circle cx="10" cy="30" r="2.16" fill="#0F3F58"/><circle cx="30" cy="30" r="2.61" fill="#0F3F58"/><circle cx="50" cy="30" r="3.00" fill="#0F3F58"/><circle cx="70" cy="30" r="3.32" fill="#0F3F58"/><circle cx="90" cy="30" r="3.53" fill="#0F3F58"/><circle cx="110" cy="30" r="3.60" fill="#0F3F58"/><circle cx="130" cy="30" r="3.53" fill="#0F3F58"/><circle cx="150" cy="30" r="3.32" fill="#0F3F58"/><circle cx="170" cy="30" r="3.00" fill="#0F3F58"/><circle cx="190" cy="30" r="2.61" fill="#0F3F58"/><circle cx="210" cy="30" r="2.16" fill="#0F3F58"/><circle cx="230" cy="30" r="1.67" fill="#0F3F58"/><circle cx="10" cy="50" r="2.50" fill="#0F3F58"/><circle cx="30" cy="50" r="3.00" fill="#0F3F58"/><circle cx="50" cy="50" r="3.45" fill="#0F3F58"/><circle cx="70" cy="50" r="3.84" fill="#0F3F58"/><circle cx="90" cy="50" r="4.10" fill="#0F3F58"/><circle cx="110" cy="50" r="4.20" fill="#0F3F58"/><circle cx="130" cy="50" r="4.10" fill="#0F3F58"/><circle cx="150" cy="50" r="3.84" fill="#0F3F58"/><circle cx="170" cy="50" r="3.45" fill="#0F3F58"/><circle cx="190" cy="50" r="3.00" fill="#0F3F58"/><circle cx="210" cy="50" r="2.50" fill="#0F3F58"/><circle cx="230" cy="50" r="1.98" fill="#0F3F58"/><circle cx="10" cy="70" r="2.77" fill="#0F3F58"/><circle cx="30" cy="70" r="3.32" fill="#0F3F58"/><circle cx="50" cy="70" r="3.84" fill="#0F3F58"/><circle cx="70" cy="70" r="4.30" fill="#0F3F58"/><circle cx="90" cy="70" r="4.66" fill="#0F3F58"/><circle cx="110" cy="70" r="4.80" fill="#0F3F58"/><circle cx="130" cy="70" r="4.66" fill="#0F3F58"/><circle cx="150" cy="70" r="4.30" fill="#0F3F58"/><circle cx="170" cy="70" r="3.84" fill="#0F3F58"/><circle cx="190" cy="70" r="3.32" fill="#0F3F58"/><circle cx="210" cy="70" r="2.77" fill="#0F3F58"/><circle cx="230" cy="70" r="2.21" fill="#0F3F58"/><circle cx="10" cy="90" r="2.94" fill="#0F3F58"/><circle cx="30" cy="90" r="3.53" fill="#0F3F58"/><circle cx="50" cy="90" r="4.10" fill="#0F3F58"/><circle cx="70" cy="90" r="4.66" fill="#0F3F58"/><circle cx="90" cy="90" r="5.15" fill="#0F3F58"/><circle cx="110" cy="90" r="5.40" fill="#0F3F58"/><circle cx="130" cy="90" r="5.15" fill="#0F3F58"/><circle cx="150" cy="90" r="4.66" fill="#0F3F58"/><circle cx="170" cy="90" r="4.10" fill="#0F3F58"/><circle cx="190" cy="90" r="3.53" fill="#0F3F58"/><circle cx="210" cy="90" r="2.94" fill="#0F3F58"/><circle cx="230" cy="90" r="2.35" fill="#0F3F58"/><circle cx="10" cy="110" r="3.00" fill="#0F3F58"/><circle cx="30" cy="110" r="3.60" fill="#0F3F58"/><circle cx="50" cy="110" r="4.20" fill="#0F3F58"/><circle cx="70" cy="110" r="4.80" fill="#0F3F58"/><circle cx="90" cy="110" r="5.40" fill="#0F3F58"/><circle cx="110" cy="110" r="6.00" fill="#0F3F58"/><circle cx="130" cy="110" r="5.40" fill="#0F3F58"/><circle cx="150" cy="110" r="4.80" fill="#0F3F58"/><circle cx="170" cy="110" r="4.20" fill="#0F3F58"/><circle cx="190" cy="110" r="3.60" fill="#0F3F58"/><circle cx="210" cy="110" r="3.00" fill="#0F3F58"/><circle cx="230" cy="110" r="2.40" fill="#0F3F58"/><circle cx="10" cy="130" r="2.94" fill="#0F3F58"/><circle cx="30" cy="130" r="3.53" fill="#0F3F58"/><circle cx="50" cy="130" r="4.10" fill="#0F3F58"/><circle cx="70" cy="130" r="4.66" fill="#0F3F58"/><circle cx="90" cy="130" r="5.15" fill="#0F3F58"/><circle cx="110" cy="130" r="5.40" fill="#0F3F58"/><circle cx="130" cy="130" r="5.15" fill="#0F3F58"/><circle cx="150" cy="130" r="4.66" fill="#0F3F58"/><circle cx="170" cy="130" r="4.10" fill="#0F3F58"/><circle cx="190" cy="130" r="3.53" fill="#0F3F58"/><circle cx="210" cy="130" r="2.94" fill="#0F3F58"/><circle cx="230" cy="130" r="2.35" fill="#0F3F58"/><circle cx="10" cy="150" r="2.77" fill="#0F3F58"/><circle cx="30" cy="150" r="3.32" fill="#0F3F58"/><circle cx="50" cy="150" r="3.84" fill="#0F3F58"/><circle cx="70" cy="150" r="4.30" fill="#0F3F58"/><circle cx="90" cy="150" r="4.66" fill="#0F3F58"/><circle cx="110" cy="150" r="4.80" fill="#0F3F58"/><circle cx="130" cy="150" r="4.66" fill="#0F3F58"/><circle cx="150" cy="150" r="4.30" fill="#0F3F58"/><circle cx="170" cy="150" r="3.84" fill="#0F3F58"/><circle cx="190" cy="150" r="3.32" fill="#0F3F58"/><circle cx="210" cy="150" r="2.77" fill="#0F3F58"/><circle cx="230" cy="150" r="2.21" fill="#0F3F58"/><circle cx="10" cy="170" r="2.50" fill="#0F3F58"/><circle cx="30" cy="170" r="3.00" fill="#0F3F58"/><circle cx="50" cy="170" r="3.45" fill="#0F3F58"/><circle cx="70" cy="170" r="3.84" fill="#0F3F58"/><circle cx="90" cy="170" r="4.10" fill="#0F3F58"/><circle cx="110" cy="170" r="4.20" fill="#0F3F58"/><circle cx="130" cy="170" r="4.10" fill="#0F3F58"/><circle cx="150" cy="170" r="3.84" fill="#0F3F58"/><circle cx="170" cy="170" r="3.45" fill="#0F3F58"/><circle cx="190" cy="170" r="3.00" fill="#0F3F58"/><circle cx="210" cy="170" r="2.50" fill="#0F3F58"/><circle cx="230" cy="170" r="1.98" fill="#0F3F58"/><circle cx="10" cy="190" r="2.16" fill="#0F3F58"/><circle cx="30" cy="190" r="2.61" fill="#0F3F58"/><circle cx="50" cy="190" r="3.00" fill="#0F3F58"/><circle cx="70" cy="190" r="3.32" fill="#0F3F58"/><circle cx="90" cy="190" r="3.53" fill="#0F3F58"/><circle cx="110" cy="190" r="3.60" fill="#0F3F58"/><circle cx="130" cy="190" r="3.53" fill="#0F3F58"/><circle cx="150" cy="190" r="3.32" fill="#0F3F58"/><circle cx="170" cy="190" r="3.00" fill="#0F3F58"/><circle cx="190" cy="190" r="2.61" fill="#0F3F58"/><circle cx="210" cy="190" r="2.16" fill="#0F3F58"/><circle cx="230" cy="190" r="1.67" fill="#0F3F58"/><circle cx="10" cy="210" r="1.76" fill="#0F3F58"/><circle cx="30" cy="210" r="2.16" fill="#0F3F58"/><circle cx="50" cy="210" r="2.50" fill="#0F3F58"/><circle cx="70" cy="210" r="2.77" fill="#0F3F58"/><circle cx="90" cy="210" r="2.94" fill="#0F3F58"/><circle cx="110" cy="210" r="3.00" fill="#0F3F58"/><circle cx="130" cy="210" r="2.94" fill="#0F3F58"/><circle cx="150" cy="210" r="2.77" fill="#0F3F58"/><circle cx="170" cy="210" r="2.50" fill="#0F3F58"/><circle cx="190" cy="210" r="2.16" fill="#0F3F58"/><circle cx="210" cy="210" r="1.76" fill="#0F3F58"/><circle cx="230" cy="210" r="1.31" fill="#0F3F58"/><circle cx="10" cy="230" r="1.31" fill="#0F3F58"/><circle cx="30" cy="230" r="1.67" fill="#0F3F58"/><circle cx="50" cy="230" r="1.98" fill="#0F3F58"/><circle cx="70" cy="230" r="2.21" fill="#0F3F58"/><circle cx="90" cy="230" r="2.35" fill="#0F3F58"/><circle cx="110" cy="230" r="2.40" fill="#0F3F58"/><circle cx="130" cy="230" r="2.35" fill="#0F3F58"/><circle cx="150" cy="230" r="2.21" fill="#0F3F58"/><circle cx="170" cy="230" r="1.98" fill="#0F3F58"/><circle cx="190" cy="230" r="1.67" fill="#0F3F58"/><circle cx="210" cy="230" r="1.31" fill="#0F3F58"/><circle cx="230" cy="230" r="0.91" fill="#0F3F58"/></svg>
