<svg xmlns="http://www.w3.org/2000/svg" viewBox="0 0 192 300" fill="#0F3F58">
  <path d="M 96 280 L 96 140" stroke="#0F3F58" stroke-width="3" fill="none"/>
  <path d="M 96 140 Q 60 110 30 90 Q 50 100 65 110 Q 75 120 95 130 Z"/>
  <path d="M 96 140 Q 132 110 162 90 Q 142 100 127 110 Q 117 120 97 130 Z"/>
  <path d="M 96 140 Q 70 100 50 50 Q 75 80 90 105 Q 95 120 95 135 Z"/>
  <path d="M 96 140 Q 122 100 142 50 Q 117 80 102 105 Q 97 120 97 135 Z"/>
  <path d="M 96 140 Q 96 90 80 40 Q 96 80 100 110 Z"/>
  <path d="M 96 280 L 92 220 L 100 220 Z" stroke="#0F3F58" stroke-width="2"/>
</svg>
